<svg width="24" height="25" viewBox="0 0 24 25" fill="none" xmlns="http://www.w3.org/2000/svg">
<path fill-rule="evenodd" clip-rule="evenodd" d="M13.099 24.1223C15.6107 23.888 17.5468 23.2918 19.0068 22.3033C20.0168 21.6194 21.0995 20.4986 21.7946 19.4173C22.6137 18.1429 23.1586 16.5583 23.425 14.6759C23.5227 13.9851 23.5394 13.6391 23.54 12.2799C23.5411 9.98969 23.3692 8.66057 22.8729 7.12076C22.6267 6.3569 22.0761 5.18696 21.6798 4.5852C20.9338 3.45276 19.7898 2.3433 18.6667 1.66309C17.5577 0.99132 16.2445 0.547638 14.4879 0.251156C12.7929 -0.0349083 11.5271 -0.0721493 9.92577 0.116928C7.50842 0.402315 5.87534 0.949806 4.35334 1.98494C3.77825 2.37606 2.63487 3.51777 2.1286 4.20631C1.82382 4.62093 1.18016 5.69289 1.18016 5.78597C1.18016 5.80107 1.10183 5.98505 1.00607 6.19485C0.640251 6.99648 0.312147 8.19059 0.121292 9.41506C0.00912094 10.135 -0.040514 12.7912 0.0380154 13.8717C0.163706 15.6009 0.507904 16.9625 1.18206 18.3974C2.06669 20.2804 3.80962 22.0742 5.58387 22.9277C6.79788 23.5116 8.28779 23.9026 9.96302 24.0768C10.6376 24.1469 12.5389 24.1746 13.099 24.1223ZM13.2659 20.0442C13.7322 19.8924 14.0277 19.4719 14.0277 18.9603C14.0277 18.8069 13.9949 18.6182 13.9547 18.5408C13.8885 18.413 11.8712 16.3657 9.77098 14.2947L8.94544 13.4807L13.989 13.4793L19.0326 13.4779V12.332V11.186L14.0019 11.186C11.235 11.186 8.97123 11.1718 8.97123 11.1544C8.97123 11.137 10.0607 10.0346 11.3924 8.70474C13.0851 7.01424 13.8458 6.21954 13.9206 6.06349C14.1153 5.65752 14.0204 5.07711 13.7111 4.7823C13.3853 4.47175 12.8427 4.37289 12.4943 4.56061C12.3008 4.66479 4.74083 12.2068 4.73923 12.2973C4.73862 12.3307 5.20881 12.8214 5.78407 13.3878C6.35931 13.9541 8.04895 15.6445 9.5388 17.1442C11.0286 18.6439 12.3257 19.9111 12.4211 19.9603C12.6255 20.0655 13.0658 20.1093 13.2659 20.0442Z" fill="black"/>
</svg>
