<?xml version="1.0" encoding="UTF-8"?>
<svg id="Lag_2" data-name="Lag 2" xmlns="http://www.w3.org/2000/svg" viewBox="0 0 786.76 514.95">
  <defs>
    <style>
      .cls-1 {
        fill: #fe97fb;
      }

      .cls-1, .cls-2 {
        stroke-width: 0px;
      }

      .cls-2 {
        fill: #fd31f8;
      }
    </style>
  </defs>
  <g id="Lag_1-2" data-name="Lag 1">
    <g>
      <path class="cls-1" d="M0,513.85c.14.01.27,0,.4-.02.83-.3,1.69-.27,2.56-.27,189.73,0,379.46,0,569.19.01,1.35,0,2.74-.2,4.04.41.28.17.37.41.26.72-191.5,0-383,0-574.5-.06-.56,0-2,1.06-1.94-.8Z"/>
      <path class="cls-2" d="M578.63,514.35c-.72,0-1.43,0-2.15,0-1.08-.02-2.15-.06-3.23-.06-189.99,0-379.98,0-569.98-.02-.95,0-2.02.42-2.86-.43,11.31-31.73,22.62-63.46,33.93-95.19,11-30.85,21.98-61.71,32.99-92.56,21.89-61.37,43.78-122.73,65.68-184.09,8.5-23.83,16.39-47.9,25.7-71.41,14.85-37.5,42.81-59.95,82.25-68.13,6.47-1.34,13.08-1.74,19.69-1.76,13.29-.04,26.58,0,39.87,0,.31.28.41.65.43,1.05-.54,3.14-1.91,6.01-2.97,8.98-6.75,18.86-13.48,37.73-20.26,56.57-7.97,22.16-15.89,44.34-23.85,66.5-6.46,17.97-13.02,35.91-19.27,53.96-3.93,11.34-5.55,23.08-5.53,35.14.03,17.01,3.87,33.05,11.51,48.14,10.14,20.03,25.11,35.51,44.87,46.31,13.5,7.38,27.92,11.6,43.25,12.84,2.73.22,5.44.33,8.17.33,124.07,0,248.14,0,372.21.01,1.72,0,3.44-.2,5.16.05.28.15.32.36.15.61-2.57,7.06-5.18,14.11-7.71,21.19-10.87,30.43-21.18,61.07-32.72,91.24-14.07,36.79-41.01,59.47-79.37,68.54-5.24,1.24-10.59,1.8-15.96,2.21Z"/>
      <path class="cls-2" d="M300.94.81c.98-.66,2.09-.41,3.15-.41,124.7,0,249.4,0,374.11-.03.96,0,2.02.38,2.9-.38,11.38.24,22.42,2.36,33.13,6.16,14.02,4.98,26.5,12.5,37.47,22.61,9.38,8.64,17.05,18.54,22.93,29.84.26,1.43.98,2.65,1.81,3.81.82,1.63,1.83,3.17,2.14,5.02.31.78.35,1.68.96,2.33.22.45.44.91.66,1.36-.11,1.38.7,2.53.98,3.82l-.02-.03c.59,1.26.73,2.68,1.4,3.91.09.15.18.3.28.45.04,2.09.75,4.02,1.37,5.97.7,1.69.77,3.51,1.18,5.26-.11.55-.46,1.12.1,1.63.42.38.41.87.35,1.38-.15.56-.44,1.12.08,1.65.52.52.4,1.16.36,1.79-.22.71-.4,1.41.06,2.1.63.82.37,1.75.35,2.66-.28,4.85-.28,9.7,0,14.55.01.9.28,1.84-.35,2.66-.05-.05-.1-.09-.14-.14-.03-.03-.04-.07-.06-.11-.02.78-.2,1.58.13,2.34.04.63.17,1.27-.37,1.79-.48.54-.24,1.1-.07,1.66.06.5.08.99-.36,1.36-.47.39-.24.82-.06,1.24-.79,4.7-1.71,9.37-3.37,13.86-.7,1.48-1.35,2.98-1.41,4.65-.63,1.62-.92,3.38-2.06,4.79-.47,1.34-.84,2.71-1.3,4.05.06.81-.26,1.46-.86,1.99-.38.88-.5,1.84-.87,2.73-.48,1.24-.4,2.67-1.25,3.79-.72,1.08-.89,2.36-1.33,3.54,0,.92-.32,1.74-.81,2.5-.66.6-.58,1.5-.92,2.23-.47,1.25-.41,2.67-1.24,3.81-.76,1.06-.89,2.36-1.35,3.54-.79,3.39-2.04,6.62-3.41,9.8-.73,1.08-.88,2.37-1.33,3.56-.02.91-.31,1.73-.83,2.47-.71,1.09-.88,2.38-1.32,3.56-.02.91-.31,1.73-.83,2.47-.71,1.09-.88,2.37-1.32,3.55,0,.92-.31,1.74-.82,2.49-.73,1.07-.89,2.36-1.33,3.54,0,.92-.32,1.74-.81,2.5-.76,1.06-.89,2.36-1.35,3.54-1.49,5.41-3.49,10.63-5.58,15.83-.71,1.08-.88,2.37-1.32,3.55-.02.91-.31,1.74-.83,2.48-.71,1.08-.89,2.37-1.32,3.55-.03.91-.31,1.74-.82,2.49-.73,1.07-.89,2.36-1.33,3.54-1.06,4.36-2.85,8.48-4.34,12.69-1.79,5.09-3.42,10.25-5.55,15.21-.71,1.08-.89,2.36-1.32,3.55-.64,2.95-1.77,5.72-2.96,8.47-.72,1.1-.9,2.4-1.35,3.6-.01.9-.29,1.71-.81,2.44-.71,1.1-.9,2.4-1.34,3.6-1.35,5.12-3.38,10-5.14,14.97-2.15,6.06-4.39,12.08-6.59,18.11-.77.54-1.65.4-2.51.4-125.22,0-250.43.07-375.65-.05-25.41-.03-48.09-8.41-67.79-24.49-20.96-17.11-33.75-39.2-38.47-65.74-3.51-19.72-1.3-39.02,5.59-57.89,11.25-30.83,22.19-61.77,33.26-92.67,10.61-29.61,21.21-59.23,31.82-88.85Z"/>
    </g>
  </g>
</svg>