<?xml version="1.0" encoding="UTF-8"?>
<svg id="Lag_2" data-name="Lag 2" xmlns="http://www.w3.org/2000/svg" viewBox="0 0 785.51 513.81">
  <defs>
    <style>
      .cls-1 {
        fill: #c430fb;
      }

      .cls-1, .cls-2, .cls-3, .cls-4, .cls-5, .cls-6, .cls-7, .cls-8, .cls-9, .cls-10, .cls-11, .cls-12, .cls-13, .cls-14 {
        stroke-width: 0px;
      }

      .cls-2 {
        fill: #b22efc;
      }

      .cls-3 {
        fill: #221dfd;
      }

      .cls-4 {
        fill: #ae2efc;
      }

      .cls-5 {
        fill: #ab2dfb;
      }

      .cls-6 {
        fill: #b42efb;
      }

      .cls-7 {
        fill: #b931fc;
      }

      .cls-8 {
        fill: #ac2dfc;
      }

      .cls-9 {
        fill: #ba30fc;
      }

      .cls-10 {
        fill: #c330fb;
      }

      .cls-11 {
        fill: #c230fb;
      }

      .cls-12 {
        fill: #c331fc;
      }

      .cls-13 {
        fill: #b72efb;
      }

      .cls-14 {
        fill: #b32dfb;
      }
    </style>
  </defs>
  <g id="Lag_1-2" data-name="Lag 1">
    <g>
      <path class="cls-3" d="M485.45,513.78c0-.14-.02-.28-.04-.41-.34-.74.02-1.4.26-2.07,3.72-10.33,7.43-20.67,11.03-31.05.56-1.14.97-2.34,1.34-3.55.34-.87.59-1.77.91-2.65.56-1.13.92-2.32,1.28-3.52,1.02-2.82,2.09-5.62,2.99-8.48.58-1.15.96-2.38,1.32-3.61,3.34-9.23,6.6-18.49,9.85-27.76.56-1.13.97-2.33,1.33-3.54.34-.86.58-1.76.9-2.63.54-1.1.91-2.27,1.27-3.44.33-.87.58-1.76.9-2.63.56-1.13.92-2.33,1.28-3.54,1.88-5.22,3.8-10.43,5.54-15.7.56-1.13.96-2.32,1.32-3.52.34-.86.58-1.76.9-2.63.54-1.1.91-2.27,1.27-3.43.33-.86.57-1.74.89-2.61.54-1.1.9-2.26,1.27-3.43.33-.86.57-1.74.89-2.61.54-1.1.91-2.27,1.27-3.43.33-.86.58-1.76.89-2.63.56-1.13.92-2.32,1.28-3.52,1.19-3.22,2.35-6.45,3.41-9.73.56-1.13.96-2.33,1.31-3.53.55-1.24.68-2.61,1.26-3.83.39-.71.7-1.45.92-2.23.32-.85.56-1.73.88-2.59.55-1.11.9-2.28,1.26-3.45.54-1.24.67-2.61,1.26-3.83.47-.79.71-1.67.93-2.55.32-.75.62-1.5.88-2.28.6-1.21.96-2.49,1.27-3.79.67-1.66,1.4-3.29,1.92-5.01.53-1.53,1.07-3.07,1.49-4.63,1.3-4.43,2.44-8.91,3.19-13.47.06-.43.12-.87.23-1.29.16-.5.27-1.02.27-1.55.02-.53.06-1.06.18-1.59.21-.62.23-1.27.23-1.92.02-.69.02-1.38.18-2.06.36-.94.13-1.93.21-2.89.02-4.62,0-9.25,0-13.87-.07-.96.06-1.94-.21-2.89-.16-.68-.17-1.37-.19-2.06,0-.65,0-1.3-.22-1.92-.13-.52-.17-1.05-.19-1.59,0-.53-.1-1.04-.26-1.55-.14-.52-.17-1.06-.26-1.59-.33-1.71-.63-3.43-1.03-5.12-.39-1.88-.88-3.74-1.39-5.59-.09-.29-.18-.58-.27-.88-.26-1.24-.59-2.47-1.17-3.62-.09-.18-.15-.36-.21-.55-.22-1.15-.61-2.25-.98-3.35-.17-.56-.43-1.08-.67-1.61-.25-.75-.56-1.47-.89-2.18-.56-1.74-1.56-3.29-2.17-5.01-.55-1.34-1.26-2.6-1.93-3.88-4.87-9.19-10.89-17.57-18.11-25.01-9.94-10.24-21.45-18.32-34.57-24.07-10.2-4.47-20.85-7.27-31.9-8.5-3.05-.34-6.12-.8-9.22-.54-125.08.01-250.15,0-375.22-.03-1.3,0-2.92.71-3.89-.92,4.33-12.21,8.65-24.43,13-36.64,8.92-25.03,17.29-50.27,26.91-75.03C127.07,31.99,155.95,8.78,197.39,1.3,203.27.24,209.23,0,215.2,0c189.33,0,378.67,0,568,0q2.67,0,1.78,2.47c-33.24,93.08-66.48,186.15-99.7,279.23-19.05,53.35-37.63,106.87-57.26,160.01-14.29,38.68-42.56,61.96-83,70.33-6.63,1.37-13.36,1.79-20.13,1.78-13.15-.03-26.3-.02-39.44-.03Z"/>
      <path class="cls-3" d="M72.31,184.04c.98-.66,2.09-.41,3.15-.41,124.7,0,249.4,0,374.11-.03.96,0,2.02.38,2.9-.38,11.38.24,22.42,2.36,33.13,6.16,14.02,4.98,26.5,12.5,37.47,22.61,9.38,8.64,17.05,18.54,22.93,29.84.26,1.43.98,2.65,1.81,3.81.82,1.63,1.83,3.17,2.14,5.02.31.78.35,1.68.96,2.33.22.45.44.91.66,1.36-.11,1.38.7,2.53.98,3.82l-.02-.03c.59,1.26.73,2.68,1.4,3.91.09.15.18.3.28.45.04,2.09.75,4.02,1.37,5.97.7,1.69.77,3.51,1.18,5.26-.11.55-.46,1.12.1,1.63.42.38.41.87.35,1.38-.15.56-.44,1.12.08,1.65.52.52.4,1.16.36,1.79-.22.71-.4,1.41.06,2.1.63.82.37,1.75.35,2.66-.28,4.85-.28,9.7,0,14.55.01.9.28,1.84-.35,2.66-.05-.05-.1-.09-.14-.14-.03-.03-.04-.07-.06-.11-.02.78-.2,1.58.13,2.34.04.63.17,1.27-.37,1.79-.48.54-.24,1.1-.07,1.66.06.5.08.99-.36,1.36-.47.39-.24.82-.06,1.24-.79,4.7-1.71,9.37-3.37,13.86-.7,1.48-1.35,2.98-1.41,4.65-.63,1.62-.92,3.38-2.06,4.79-.47,1.34-.84,2.71-1.3,4.05.06.81-.26,1.46-.86,1.99-.38.88-.5,1.84-.87,2.73-.48,1.24-.4,2.67-1.25,3.79-.72,1.08-.89,2.36-1.33,3.54,0,.92-.32,1.74-.81,2.5-.66.6-.58,1.5-.92,2.23-.47,1.25-.41,2.67-1.24,3.81-.76,1.06-.89,2.36-1.35,3.54-.79,3.39-2.04,6.62-3.41,9.8-.73,1.08-.88,2.37-1.33,3.56-.02.91-.31,1.73-.83,2.47-.71,1.09-.88,2.38-1.32,3.56-.02.91-.31,1.73-.83,2.47-.71,1.09-.88,2.37-1.32,3.55,0,.92-.31,1.74-.82,2.49-.73,1.07-.89,2.36-1.33,3.54,0,.92-.32,1.74-.81,2.5-.76,1.06-.89,2.36-1.35,3.54-1.49,5.41-3.49,10.63-5.58,15.83-.71,1.08-.88,2.37-1.32,3.55-.02.91-.31,1.74-.83,2.48-.71,1.08-.89,2.37-1.32,3.55-.03.91-.31,1.74-.82,2.49-.73,1.07-.89,2.36-1.33,3.54-1.06,4.36-2.85,8.48-4.34,12.69-1.79,5.09-3.42,10.25-5.55,15.21-.71,1.08-.89,2.36-1.32,3.55-.64,2.95-1.77,5.72-2.96,8.47-.72,1.1-.9,2.4-1.35,3.6-.01.9-.29,1.71-.81,2.44-.71,1.1-.9,2.4-1.34,3.6-1.35,5.12-3.38,10-5.14,14.97-2.15,6.06-4.39,12.08-6.59,18.11-.77.54-1.65.4-2.51.4-125.22,0-250.43.07-375.65-.05-25.41-.03-48.09-8.41-67.79-24.49-20.96-17.11-33.75-39.2-38.47-65.74-3.51-19.72-1.3-39.02,5.59-57.89,11.25-30.83,22.19-61.77,33.26-92.67,10.61-29.61,21.21-59.23,31.82-88.85Z"/>
      <path class="cls-12" d="M128.37,157.72c-.85-2.71-.29-5.49-.33-8.24-.03-2.1-.47-4.25.33-6.31,0,4.85,0,9.7,0,14.55Z"/>
      <path class="cls-2" d="M125.89,126.7c-1.02-1.86-1.76-3.79-1.37-5.97.46,1.99.91,3.98,1.37,5.97Z"/>
      <path class="cls-4" d="M122.32,187.02c-.55-1.78.71-3.16,1.04-4.74,0-.03.13-.05.19-.03.06.02.11.08.17.12-.47,1.55-.94,3.1-1.41,4.65Z"/>
      <path class="cls-8" d="M118.1,103.87c-1.17-1-1.99-2.17-1.81-3.81.6,1.27,1.21,2.54,1.81,3.81Z"/>
      <path class="cls-5" d="M118.96,195.86c.04-1.48.48-2.82,1.3-4.05,0,1.49-.53,2.81-1.3,4.05Z"/>
      <path class="cls-6" d="M124.24,120.27c-.96-1.13-1.25-2.49-1.4-3.91,1,1.11,1.14,2.53,1.4,3.91Z"/>
      <path class="cls-5" d="M114.65,207.91c-.1-1.33.58-2.45.97-3.65,0-.03.13-.04.19-.02.06.02.11.08.17.12-.24,1.26-.58,2.48-1.33,3.54Z"/>
      <path class="cls-14" d="M122.85,116.4c-.58-1.21-1.59-2.3-.98-3.82.31,1.27,1.12,2.42.98,3.82Z"/>
      <path class="cls-10" d="M127.94,162.46c-.76-.91-.25-1.95-.35-2.99.15.13.28.19.32.29.06.19.07.4.1.61-.02.7-.05,1.39-.07,2.09Z"/>
      <path class="cls-5" d="M117.24,200.57c-.05-1.02.16-1.95.87-2.73.06,1.02-.19,1.94-.87,2.73Z"/>
      <path class="cls-11" d="M127.59,136.62c-.13.13-.22.72-.37.3-.21-.59-.36-1.39.29-1.95.03.55.05,1.1.08,1.65Z"/>
      <path class="cls-9" d="M127.17,133.59c-.13.14-.21.73-.37.33-.23-.59-.34-1.39.27-1.96.03.54.06,1.09.1,1.63Z"/>
      <path class="cls-11" d="M127.51,165.91c-.64-.56-.49-1.35-.29-1.94.14-.42.24.15.36.28-.02.55-.04,1.11-.07,1.66Z"/>
      <path class="cls-1" d="M128.02,140.51c-.84-.68-.54-1.39-.06-2.1.02.7.04,1.4.06,2.1Z"/>
      <path class="cls-13" d="M121.21,111.22c-.94-.52-.99-1.41-.96-2.33.53.69.82,1.48.96,2.33Z"/>
      <path class="cls-7" d="M127.09,168.51c-.58-.42-.56-1.12-.31-1.54.27-.45.24.18.36.3-.02.41-.04.83-.06,1.24Z"/>
    </g>
  </g>
</svg>