<svg width="279" height="279" viewBox="0 0 279 279" fill="none" xmlns="http://www.w3.org/2000/svg">
<path d="M121.926 71.2485L84.2554 8.46809C82.7065 5.88548 80.5152 3.74807 77.8948 2.26406C75.2743 0.780052 72.3142 3.69743e-05 69.3028 0H8.7347C1.67797 0 -2.45254 7.93951 1.59078 13.7211L62.2242 100.342C78.4193 85.2094 99.0174 74.8232 121.926 71.2485ZM270.264 0H209.696C203.572 0 197.893 3.21504 194.744 8.46809L157.073 71.2485C179.982 74.8232 200.58 85.2094 216.775 100.336L277.408 13.7211C281.452 7.93951 277.321 0 270.264 0ZM139.5 87.1875C86.5332 87.1875 43.5934 130.127 43.5934 183.094C43.5934 236.06 86.5332 279 139.5 279C192.466 279 235.406 236.06 235.406 183.094C235.406 130.127 192.466 87.1875 139.5 87.1875ZM189.916 172.882L169.247 193.022L174.135 221.478C175.007 226.579 169.634 230.475 165.062 228.066L139.5 214.634L113.943 228.066C109.365 230.491 103.998 226.573 104.87 221.478L109.758 193.022L89.0889 172.882C85.3725 169.264 87.4269 162.948 92.5491 162.207L121.119 158.044L133.887 132.149C135.037 129.817 137.26 128.667 139.489 128.667C141.728 128.667 143.968 129.833 145.118 132.149L157.885 158.044L186.456 162.207C191.578 162.948 193.632 169.264 189.916 172.882Z" fill="black"/>
</svg>
