<?xml version="1.0" encoding="UTF-8"?>
<svg id="Layer_1" data-name="Layer 1" xmlns="http://www.w3.org/2000/svg" viewBox="0 0 119 119">
  <defs>
    <style>
      .cls-1 {
        fill: #000;
        stroke-width: 0px;
      }
    </style>
  </defs>
  <path class="cls-1" d="M52,30.39L35.94,3.61c-.66-1.1-1.6-2.01-2.71-2.65C32.11.33,30.84,0,29.56,0H3.73C.72,0-1.05,3.39.68,5.85l25.86,36.95c6.91-6.45,15.69-10.88,25.46-12.41ZM115.27,0h-25.83c-2.61,0-5.03,1.37-6.38,3.61l-16.07,26.78c9.77,1.52,18.56,5.95,25.46,12.41L118.32,5.85c1.72-2.47-.04-5.85-3.05-5.85ZM59.5,37.19c-22.59,0-40.91,18.31-40.91,40.91s18.31,40.91,40.91,40.91,40.91-18.31,40.91-40.91-18.31-40.91-40.91-40.91ZM81,73.74l-8.82,8.59,2.08,12.14c.37,2.18-1.92,3.84-3.87,2.81l-10.9-5.73-10.9,5.73c-1.95,1.03-4.24-.64-3.87-2.81l2.08-12.14-8.82-8.59c-1.59-1.54-.71-4.24,1.48-4.55l12.19-1.78,5.45-11.04c.49-.99,1.44-1.49,2.39-1.49s1.91.5,2.4,1.49l5.45,11.04,12.19,1.78c2.18.32,3.06,3.01,1.48,4.55Z"/>
</svg>