<svg width="40" height="41" viewBox="0 0 40 41" fill="none" xmlns="http://www.w3.org/2000/svg">
<path fill-rule="evenodd" clip-rule="evenodd" d="M32.5734 0.0674258C31.0176 0.413031 29.5918 1.35451 28.6154 2.68105C28.4051 2.96674 28.352 2.97808 25.5131 3.34214C23.9246 3.54586 22.176 3.78351 21.6273 3.87025L20.6299 4.02795L10.3149 14.2299C2.40904 22.0492 0 24.4907 0 24.684C0 24.8767 1.88926 26.8078 8.00599 32.867C12.4093 37.2289 16.1215 40.8558 16.2553 40.9268C16.4861 41.0492 16.8626 40.694 23.5746 34.02C27.4663 30.1503 32.3708 25.2646 34.4734 23.1631L38.2964 19.342V14.742V10.1421L38.7428 9.55594C39.7404 8.24616 40.0565 7.21719 39.992 5.48948C39.9521 4.42127 39.9294 4.32965 39.4817 3.42952C39.1201 2.70215 38.84 2.31826 38.2527 1.74508C37.3593 0.873167 36.6939 0.492672 35.5595 0.205074C34.7829 0.00825153 33.174 -0.0659807 32.5734 0.0674258ZM32.7338 2.04063C32.1243 2.21275 31.3444 2.64213 31.1925 2.88943C31.0937 3.05009 31.1745 3.17215 31.7176 3.68223C32.0706 4.01384 33.365 5.25469 34.5941 6.43965L36.8288 8.5942L37.0836 8.35687C37.2237 8.22633 37.4697 7.85453 37.6302 7.53045C37.8926 7.00064 37.9217 6.82927 37.9189 5.82787C37.9161 4.78978 37.8932 4.6708 37.58 4.07174C36.9159 2.80078 35.63 2.01667 34.0935 1.94551C33.5732 1.92144 33.019 1.96014 32.7338 2.04063ZM30.5821 8.62538C29.7075 8.93514 29.1998 9.51182 28.9919 10.4316C28.7718 11.4054 29.3299 12.4871 30.3269 13.0182C31.093 13.4264 32.3927 13.1525 33.0758 12.439C34.732 10.7092 32.8451 7.82367 30.5821 8.62538ZM18.3196 11.4908C17.6781 11.6985 16.8965 12.2198 16.3354 12.8146C15.5964 13.5979 15.4631 13.9146 15.4602 14.8948C15.458 15.6296 15.5006 15.8276 15.7786 16.3735C16.2041 17.2093 16.9467 17.9275 17.8323 18.3597C18.444 18.6582 18.6713 18.7125 19.3087 18.7125C19.9416 18.7125 20.1743 18.6577 20.7649 18.3695C22.8373 17.3581 23.6617 15.475 22.7949 13.7329C22.3889 12.9167 21.5053 12.0259 20.7629 11.684C20.0607 11.3606 18.9843 11.2755 18.3196 11.4908ZM18.6622 13.6608C17.8858 14.1301 17.4966 14.9595 17.7585 15.5864C17.9188 15.9698 18.518 16.5108 18.8835 16.6018C19.5017 16.7555 20.4273 16.2932 20.7693 15.6597C21.0648 15.1124 20.8123 14.2403 20.2136 13.741C19.8075 13.4022 19.1465 13.3681 18.6622 13.6608ZM24.4386 16.8199C23.7941 17.3966 22.4724 18.5664 21.5016 19.4194C20.5309 20.2725 19.5066 21.205 19.2256 21.4918L18.7144 22.0131L19.0226 22.4307C19.1922 22.6604 19.4326 22.9377 19.5568 23.0471C19.8135 23.2728 19.518 23.4901 22.0438 21.218C22.7164 20.6129 24.0214 19.4437 24.9439 18.6198C25.8664 17.796 26.623 17.0741 26.6253 17.0158C26.6277 16.9575 26.4003 16.6536 26.12 16.3406L25.6104 15.7713L24.4386 16.8199ZM24.2829 20.8796C23.3232 21.17 21.9428 22.3142 21.5043 23.1828C21.3544 23.4796 21.2261 23.9522 21.2003 24.3014C21.11 25.5272 22.1718 27.0322 23.5917 27.691C24.211 27.9781 24.3758 28.0098 25.0616 27.9736C25.6026 27.9448 25.9874 27.8559 26.3456 27.6764C27.0217 27.338 27.9116 26.3958 28.3014 25.6055C28.5699 25.0615 28.615 24.8464 28.6135 24.1209C28.612 23.4418 28.5625 23.1805 28.3653 22.8113C27.9858 22.1011 27.3216 21.4548 26.6083 21.1014C26.0734 20.8364 25.8374 20.782 25.2553 20.7896C24.8677 20.7945 24.43 20.835 24.2829 20.8796ZM25.0656 22.9325C24.1243 23.2859 23.2324 24.1999 23.1364 24.9094C23.0848 25.2903 23.1182 25.3735 23.4563 25.7086C23.7729 26.0225 23.9089 26.0828 24.3006 26.0828C25.0563 26.0828 26.1882 25.3387 26.5916 24.5769C27.1289 23.5626 26.162 22.5209 25.0656 22.9325Z" fill="black"/>
</svg>
