<svg width="37" height="38" viewBox="0 0 37 38" fill="none" xmlns="http://www.w3.org/2000/svg">
<path fill-rule="evenodd" clip-rule="evenodd" d="M15.9753 0.131637C13.1495 0.520191 10.2025 1.74545 7.76651 3.54453C6.77759 4.27487 4.95182 6.05084 4.16662 7.04608C1.16106 10.8559 -0.364262 15.8653 0.0740711 20.4872C0.45468 24.5006 1.89964 28.0569 4.38281 31.0918C7.06796 34.3736 10.8154 36.7017 14.7093 37.5069C18.0176 38.1911 21.836 37.921 24.7728 36.7952C29.793 34.8707 33.7499 30.9266 35.745 25.8584C36.2649 24.538 36.7878 22.3383 36.9261 20.8903C37.0825 19.2526 36.9824 16.7306 36.7047 15.3161C35.2293 7.79689 29.4399 1.88151 21.9946 0.28551C20.571 -0.0195858 17.6231 -0.0949845 15.9753 0.131637ZM16.8638 5.17553C13.9855 5.51975 11.0939 6.95128 8.99734 9.06987C6.62211 11.4699 5.35167 14.2515 5.00604 17.809C4.64004 21.576 6.01369 25.6169 8.61612 28.4282C10.6628 30.6391 12.9409 31.9358 15.9367 32.5952C16.5817 32.7372 17.2513 32.7842 18.5991 32.7822C20.1731 32.7799 20.5423 32.7449 21.5316 32.5041C23.6273 31.9941 25.3706 31.1296 27.036 29.7747C29.2521 27.9717 30.9127 25.3363 31.6899 22.3885C32.0123 21.166 32.0236 21.054 32.0253 19.0555C32.0267 17.2803 31.9935 16.8336 31.7905 15.8997C31.2431 13.3815 30.1257 11.2349 28.4041 9.39427C25.3665 6.14681 21.2685 4.64869 16.8638 5.17553ZM18.0332 6.88235C17.8068 7.18118 17.5653 7.52509 17.4966 7.64662C17.4041 7.81025 17.3701 9.05216 17.3657 12.4276C17.3604 16.6203 17.3446 17.0218 17.1708 17.4118C16.8609 18.1075 16.6392 18.2454 13.6087 19.6275C10.0233 21.2627 8.26031 22.141 8.02663 22.4082C7.71712 22.7622 7.71949 23.3634 8.03239 23.8384C8.25537 24.177 8.30352 24.1981 8.82983 24.1887C9.29903 24.1802 9.61554 24.0657 10.7791 23.4831C11.5431 23.1005 12.7932 22.5011 13.5572 22.1512C14.3212 21.8013 15.5483 21.2169 16.284 20.8524C17.5424 20.229 17.6673 20.1892 18.3933 20.1794C19.3225 20.1669 19.8762 19.913 20.1588 19.37C20.3826 18.9399 20.4053 18.2065 20.2075 17.8042C20.0519 17.488 19.906 17.7821 23.1381 11.8975C23.8249 10.6471 24.3612 9.5509 24.3612 9.39745C24.3612 9.04166 23.9702 8.67029 23.5157 8.59425C23.2285 8.54622 23.1118 8.58206 22.9411 8.77093C22.8233 8.90126 22.0876 10.1683 21.3061 11.5867L19.8853 14.1655L19.858 10.9118L19.8308 7.65808L19.1922 6.99401C18.841 6.62879 18.5291 6.33196 18.4992 6.33451C18.4693 6.33695 18.2596 6.58351 18.0332 6.88235ZM7.15202 18.4277C6.9452 18.5519 6.91032 19.0556 7.09543 19.2464C7.26521 19.4214 9.45687 19.4214 9.62665 19.2464C9.82225 19.0448 9.77667 18.5474 9.55112 18.423C9.29533 18.2819 7.38868 18.2857 7.15202 18.4277ZM27.4718 18.5433C27.2948 18.7257 27.3141 19.1144 27.5101 19.3164C27.6456 19.4561 27.88 19.4811 28.822 19.4566L29.969 19.4267V18.9495V18.4723L28.7837 18.4426C27.9492 18.4217 27.5608 18.4516 27.4718 18.5433ZM17.8788 30.0313V31.1448H18.5477H19.2165V30.0313V28.9179H18.5477H17.8788V30.0313Z" fill="black"/>
</svg>
