<svg width="140" height="104" viewBox="0 0 140 104" fill="none" xmlns="http://www.w3.org/2000/svg">
<path fill-rule="evenodd" clip-rule="evenodd" d="M102.03 0.36367C100.781 0.812679 99.7125 1.50356 96.901 3.68203C95.9171 4.44463 94.9313 5.06829 94.7106 5.06829C94.49 5.06829 93.6489 4.56396 92.8416 3.9477L91.3743 2.82711L89.6979 4.18893C88.7761 4.93803 86.6034 6.70865 84.8701 8.12387C83.1364 9.53908 81.177 11.1312 80.5154 11.6619C73.6429 17.1748 66.7814 23.8411 65.7833 25.9749C64.1674 29.4293 64.1697 29.3852 64.3244 53.6565C64.4115 67.3737 64.5984 76.8824 64.7975 77.7589C65.1758 79.4243 66.6752 82.1814 68.0612 83.76C69.3851 85.2678 72.5542 86.9632 75.2203 87.5898C77.1054 88.033 78.9574 88.096 86.8697 87.987L96.2777 87.8574V92.9502C96.2777 98.3759 96.5392 99.6393 97.9817 101.184C99.4548 102.762 99.9485 102.847 107.693 102.847C114.296 102.847 115.072 102.789 116.205 102.211C116.891 101.861 117.765 101.135 118.148 100.598C118.8 99.6818 118.843 99.254 118.839 93.8357L118.836 88.0513L119.699 88.0397C122.176 88.0069 126.659 86.2958 128.397 84.7198C129.438 83.7758 131.415 80.7983 132.165 79.0454C132.743 77.6929 132.791 76.5447 132.884 61.516C132.956 50.0168 132.879 45.0674 132.613 44.1475C131.646 40.8066 130.041 38.5886 127.055 36.4635C125.135 35.0975 112.961 27.5991 105.855 23.4053C101.655 20.9271 100.62 19.6797 100.62 17.1005C100.62 15.1588 101.314 13.9803 103.066 12.9485C104.083 12.3496 104.9 12.2942 114.933 12.1444L125.708 11.9835V6.03321V0.0828784L114.45 0.0143699C105.888 -0.0377357 102.915 0.0458902 102.03 0.36367ZM128.964 8.29016C125.858 15.3546 123.359 21.7582 123.118 23.2715C122.388 27.8442 125.548 31.9873 130.219 32.5801C134.597 33.1359 139.377 29.1897 139.377 25.0202C139.377 22.9283 137.712 18.2176 133.516 8.44551C132.452 5.96888 131.475 3.82516 131.343 3.6817C131.212 3.53825 130.141 5.61218 128.964 8.29016ZM29.7407 11.8478C26.6745 12.4502 23.0912 15.1144 21.7268 17.8055C21.3771 18.4955 19.1009 24.0531 16.6686 30.1562C14.2364 36.2593 12.129 41.402 11.9856 41.584C11.8421 41.7664 10.8399 42.1119 9.7579 42.3521C6.28773 43.1218 4.41868 44.9976 2.71206 49.4227C1.25375 53.2046 0.660645 57.3515 0.660645 63.7675C0.660645 71.9703 1.70887 77.4793 3.90438 80.8151C4.8619 82.2705 5.46787 82.8021 7.02268 83.5519C8.08409 84.0636 9.64018 84.5782 10.4803 84.6953L12.0081 84.9079V92.1242C12.0081 99.9336 12.0724 100.28 13.8289 101.942C15.321 103.354 16.1415 103.49 23.1416 103.49C30.1518 103.49 30.7703 103.376 32.5432 101.764C34.1079 100.341 34.2012 99.8053 34.2012 92.2487V85.1566L41.3577 85.1016C45.2939 85.0713 48.7313 85.0144 48.9966 84.9748C49.262 84.9356 53.2423 84.8857 57.8417 84.8642C62.4412 84.8426 66.0468 84.7188 65.8538 84.5889C64.9792 83.999 63.4061 81.3271 62.8236 79.441C62.2176 77.4787 62.1839 76.4289 62.1839 59.5524V41.7352H43.6896C25.6594 41.7352 25.1953 41.7198 25.1953 41.117C25.1953 40.777 26.2699 37.4841 27.5835 33.7997C28.8971 30.1153 30.3052 25.9646 30.713 24.5757C31.4351 22.1165 31.4946 22.0306 33.0144 21.2606C35.4 20.0519 38.2323 19.8901 53.387 20.0975L67.2661 20.2876L71.3689 16.7789C73.6256 14.849 75.9195 12.8764 76.4666 12.3949L77.4618 11.5201L54.3037 11.5458C41.5668 11.5599 30.5133 11.6957 29.7407 11.8478ZM132.195 15.225C132.249 16.8033 132.344 19.7592 132.407 21.7936C132.572 27.1691 133.503 28.9545 135.237 27.2206C135.822 26.6355 135.898 26.2733 135.757 24.7279C135.626 23.2834 133.525 16.0639 132.336 12.9736C132.205 12.6339 132.142 13.6471 132.195 15.225ZM84.296 30.6078C82.4012 31.2954 80.9461 32.5875 80.3732 34.0908C79.9094 35.3079 79.8609 37.4146 79.9426 52.6948L80.0349 69.9263L80.94 71.2939C81.5668 72.2405 82.3584 72.9005 83.5131 73.4379L85.1811 74.2144L99.8157 74.216C108.438 74.2166 114.919 74.087 115.59 73.9005C116.217 73.7264 117.187 73.1121 117.745 72.5354C119.626 70.5921 119.758 69.8758 119.755 61.6068C119.754 57.4882 119.608 53.5947 119.431 52.9546C118.782 50.6218 117.83 49.7482 111.711 45.8705C103.489 40.6606 97.6417 36.8756 93.9471 34.3716C87.7282 30.1562 86.6732 29.7448 84.296 30.6078ZM99.2216 46.0658C96.8631 46.6364 94.9914 48.0088 94.0851 49.8325C91.8799 54.2698 92.1349 63.5787 94.5482 66.7427C97.4012 70.4834 104.261 71.1192 108.589 68.0447C111.107 66.2564 112.515 58.7191 111.355 53.2496C110.522 49.3243 108.77 47.2983 105.265 46.2076C103.015 45.5074 101.661 45.4756 99.2216 46.0658ZM100.704 49.9579C99.4831 50.6205 98.9698 51.7752 98.5156 54.8826C98.1194 57.592 98.2628 60.7361 98.8904 63.0947C99.6632 66.0007 102.455 67.128 104.303 65.2802C106.375 63.2079 106.814 55.1559 105.056 51.4507C104.542 50.3664 103.197 49.4446 102.164 49.4674C101.845 49.4745 101.188 49.6951 100.704 49.9579ZM19.042 55.5168C14.1287 57.4994 12.2027 62.1584 14.422 66.6941C16.3152 70.5634 21.3115 72.3585 24.9596 70.4798C27.056 69.4001 28.1981 68.2608 29.1042 66.3451C30.5197 63.3529 30.2431 61.0622 28.1287 58.2713C26.0222 55.4908 22.0735 54.2936 19.042 55.5168Z" fill="black"/>
</svg>
