<svg width="144" height="112" viewBox="0 0 144 112" fill="none" xmlns="http://www.w3.org/2000/svg">
<g filter="url(#filter0_d_324_595)">
<path fill-rule="evenodd" clip-rule="evenodd" d="M51.3818 0.273414C48.4623 0.963788 45.1559 3.53337 43.9361 6.05905C43.0107 7.97504 42.5609 11.0397 42.9056 13.0811L43.1701 14.6495L39.5755 18.2833L35.981 21.9168L34.3694 20.3162L32.7575 18.7153L33.7238 17.445C35.4985 15.1112 34.708 12.7119 32.1511 12.6711C31.1118 12.6545 30.785 12.3985 27.035 8.66114C22.4105 4.05237 21.7346 3.58841 19.8806 3.75038C18.2573 3.89239 16.9878 4.76327 15.9036 6.47937C15.2469 7.51821 15.085 8.09823 15.085 9.40798C15.085 11.4072 15.0566 11.3707 20.5622 16.4671C24.6597 20.2601 24.6813 20.2866 24.5387 21.3531C24.427 22.1895 24.5276 22.5579 24.9967 23.0287C26.0375 24.0732 28.7816 23.6204 29.5482 22.2776C29.7999 21.8367 30.0082 21.9534 31.3382 23.2802L32.8433 24.7816L26.8563 30.7722L20.8694 36.7626L19.4689 36.1144C18.3022 35.5743 17.5942 35.4677 15.2271 35.4751C12.6818 35.4831 12.2087 35.5701 10.6872 36.3109C7.39892 37.9115 4.91844 41.3434 4.34222 45.0905C4.20328 45.9921 4.11918 46.7301 4.15498 46.7301C4.22715 46.7301 9.13469 44.9812 11.0361 44.278C12.0414 43.9062 12.2445 43.704 12.2479 43.0707C12.2505 42.6523 12.3491 42.1576 12.4673 41.9708C12.6949 41.6118 13.0779 42.1185 14.7724 45.0192C15.2765 45.8818 16.0459 46.8442 16.4824 47.1579C17.4666 47.8654 19.085 49.312 19.5641 49.9125C19.8701 50.2961 19.6053 50.7155 17.7692 52.7525C15.7172 55.0292 13.9485 57.4063 13.9485 57.8873C13.9485 58.2869 15.9573 58.5019 18.2301 58.3456C22.1187 58.0781 24.9711 56.1769 26.6731 52.7185C27.6576 50.7175 27.8948 47.1947 27.1854 45.1053L26.7262 43.7528L30.069 40.3736C31.9074 38.5152 34.7941 35.6984 36.4842 34.1143L39.5568 31.2342L42.9482 34.629C45.8094 37.4929 46.3396 38.1608 46.3396 38.899C46.3396 39.5133 46.6149 40.0408 47.263 40.6673C48.1643 41.5391 51.3403 43.5934 51.7867 43.5934C51.91 43.5934 52.2717 43.0801 52.5905 42.4527C53.0346 41.5793 53.3375 41.3121 53.8839 41.3121C55.5517 41.3121 54.9059 39.4494 52.2746 36.6711C50.9925 35.3171 50.5342 35.0063 49.9353 35.0842C49.3116 35.1654 48.6598 34.6496 45.9182 31.9063C44.1185 30.1052 42.6459 28.4978 42.6459 28.3341C42.6459 28.1701 44.0984 26.6679 45.8736 24.9957L49.1014 21.9553L50.917 22.701C53.3057 23.682 55.5381 23.8423 57.8953 23.2018C62.5789 21.9294 65.97 17.8433 66.413 12.9386C66.6508 10.3031 65.6958 10.223 63.8657 12.725C61.9873 15.2928 62.0908 15.2646 59.491 13.9266C55.6682 11.9596 54.276 10.4231 53.8407 7.69216C53.6333 6.38955 53.8825 5.96181 56.5644 3.01666L58.0172 1.42119L57.3276 0.967782C55.8515 -0.00290607 53.6412 -0.260978 51.3818 0.273414ZM93.5056 19.2238C89.9639 20.2167 87.1669 23.1299 86.2295 26.8011C85.1078 31.1966 87.4851 36.1991 91.7051 38.3227C93.2024 39.0761 93.6394 39.158 96.2049 39.1654C98.703 39.1725 99.2425 39.081 100.671 38.4089C102.679 37.4644 104.585 35.5378 105.636 33.3897C106.739 31.1355 106.893 27.9149 106.012 25.5578C104.199 20.71 98.4995 17.8236 93.5056 19.2238ZM85.1126 41.2773C83.5576 41.9865 81.7164 44.1429 81.3212 45.7181C80.9123 47.3475 80.885 70.6708 81.2902 72.1346C81.4544 72.7277 82.0508 73.5877 82.7091 74.1812L83.8451 75.2046V89.3409V103.477H88.8137H93.7821L93.8571 93.853L93.9318 84.2288L96.2759 84.1461L98.62 84.0631V93.7766V103.49L103.745 103.412L108.87 103.335L108.854 89.0363L108.839 74.7381L109.817 74.1586C111.921 72.913 111.844 73.5236 111.733 59.0123C111.639 46.7318 111.603 45.9673 111.064 44.8164C110.4 43.3989 109.012 42.0928 107.261 41.2394L106.02 40.6342L103.951 41.6745C100.848 43.2343 98.7382 43.6883 95.3542 43.5238C92.3219 43.3764 90.3699 42.8029 88.3603 41.4678C87.066 40.6083 86.6356 40.5832 85.1126 41.2773ZM72.3673 44.4714C68.0581 45.2325 62.7596 46.5722 59.3281 47.7678C54.8684 49.322 50.7238 51.4176 43.7614 55.6391C40.2569 57.7639 35.7272 60.427 33.6957 61.5568L30.002 63.6114L24.0352 64.5761C15.8874 65.8935 14.1994 66.2694 12.4619 67.1517C10.6556 68.069 7.98878 70.7376 6.36127 73.2558C4.41609 76.2654 4.1115 80.2172 5.42647 85.3777C6.12203 88.1064 7.16252 90.1151 8.78009 91.8503C10.6454 93.8521 11.8965 94.4236 14.7565 94.581L17.1271 94.7116L16.9321 92.8852C16.5457 89.2633 18.0337 84.993 20.6293 82.2746C23.1808 79.6024 27.9602 78.075 31.871 78.6821C35.7383 79.2824 39.9858 82.211 41.4789 85.3064C42.4572 87.3342 43.0084 90.4798 42.8018 92.8549L42.6223 94.9223H61.2563H79.8903L79.8076 86.0111L79.7252 77.0998L78.6676 75.7339C78.0857 74.9825 77.4874 73.8917 77.3379 73.31C77.1882 72.728 76.9807 66.9267 76.8767 60.4179C76.6992 49.2946 76.8216 46.058 77.4854 44.3217C77.7141 43.7237 76.3795 43.7627 72.3673 44.4714ZM115.668 58.7976C115.668 73.3434 115.598 74.0474 113.951 75.9295C113.478 76.4704 113.111 77.2161 113.111 77.6365C113.111 78.2903 113.227 78.383 114.046 78.383C114.56 78.383 115.732 78.5795 116.65 78.8196C120.548 79.8385 123.743 82.4611 125.409 86.0085C126.221 87.7403 126.324 88.257 126.418 91.0969L126.523 94.2579L128.838 93.8578C131.615 93.3776 133.084 92.7645 134.556 91.4702C137.016 89.3072 138.545 85.4564 138.935 80.4399C139.527 72.8189 137.957 68.0702 132.83 61.9862C128.383 56.7076 116.897 45.5895 115.892 45.5895C115.769 45.5895 115.668 51.5331 115.668 58.7976ZM27.0998 81.9167C24.2534 82.8495 22.2861 84.5433 20.8412 87.3048C20.1448 88.6357 20.063 89.0905 20.0604 91.6473C20.0576 94.305 20.1224 94.6363 20.995 96.4163C22.5696 99.6295 25.4229 101.461 29.2413 101.709C35.3201 102.104 39.9995 97.6858 39.9034 91.643C39.8412 87.7246 37.5815 84.111 34.1759 82.4833C32.2307 81.5537 28.9973 81.2948 27.0998 81.9167ZM113.111 91.5555C113.111 97.1192 113.176 101.737 113.257 101.818C113.515 102.077 116.436 101.497 117.779 100.919C119.349 100.244 121.776 98.0317 122.491 96.6248C123.738 94.1718 123.833 90.5879 122.728 87.6088C121.578 84.506 118.19 81.9661 114.721 81.6068L113.111 81.4399V91.5555Z" fill="black"/>
</g>
<defs>
<filter id="filter0_d_324_595" x="0.146729" y="0" width="142.907" height="111.49" filterUnits="userSpaceOnUse" color-interpolation-filters="sRGB">
<feFlood flood-opacity="0" result="BackgroundImageFix"/>
<feColorMatrix in="SourceAlpha" type="matrix" values="0 0 0 0 0 0 0 0 0 0 0 0 0 0 0 0 0 0 127 0" result="hardAlpha"/>
<feOffset dy="4"/>
<feGaussianBlur stdDeviation="2"/>
<feComposite in2="hardAlpha" operator="out"/>
<feColorMatrix type="matrix" values="0 0 0 0 0 0 0 0 0 0 0 0 0 0 0 0 0 0 0.25 0"/>
<feBlend mode="normal" in2="BackgroundImageFix" result="effect1_dropShadow_324_595"/>
<feBlend mode="normal" in="SourceGraphic" in2="effect1_dropShadow_324_595" result="shape"/>
</filter>
</defs>
</svg>
