<svg width="112" height="104" viewBox="0 0 112 104" fill="none" xmlns="http://www.w3.org/2000/svg">
<path fill-rule="evenodd" clip-rule="evenodd" d="M5.80229 0.191775C5.74761 0.356939 5.17694 2.3888 4.53405 4.7068C3.89117 7.0248 3.21889 9.37537 3.04006 9.9301C2.47827 11.6722 2.55664 11.8731 4.0135 12.4306C4.72769 12.7039 6.99079 13.4339 9.04247 14.0526C12.2157 15.0096 12.9185 15.306 13.7486 16.0362C15.3504 17.4456 18.4789 18.9403 21.5093 19.7438C23.0129 20.1427 24.3713 20.5072 24.5278 20.5542C24.6846 20.6011 24.8126 20.7496 24.8126 20.8843C24.8126 21.1153 19.2774 27.2026 17.6167 28.798C16.9148 29.4721 16.7184 29.5384 15.4215 29.5384H13.9972L12.5137 31.0846C10.0435 33.6589 1.32326 44.1772 0.957619 45.0235C0.660779 45.7111 0.657589 45.9496 0.933926 46.846C1.23806 47.8332 1.43717 48.0063 5.57129 50.8806C13.3454 56.2859 19.7684 60.6251 20.7669 61.1465C21.5726 61.5673 21.8825 61.6193 22.5103 61.4391C24.2601 60.9372 24.2508 60.9538 27.0632 53.3449C27.943 50.9642 29.3857 47.093 30.2689 44.742C31.1522 42.3909 31.8748 40.2982 31.8748 40.0916C31.8748 39.885 31.5559 39.2191 31.1661 38.6115L30.4573 37.5073L31.2533 36.1997C34.663 30.5982 35.7845 28.6723 35.8964 28.2269C36.0789 27.5013 35.5398 26.7933 33.926 25.6383C32.0589 24.3019 28.9795 21.8563 28.8016 21.5686C28.7132 21.4255 29.034 21.3367 29.6402 21.3358C31.0346 21.3342 32.3498 20.9282 33.0264 20.2908L33.6082 19.7425L36.2078 21.226C37.6376 22.0418 38.8846 22.6824 38.9789 22.6496C39.0735 22.617 39.6635 21.9828 40.2907 21.2403C41.3204 20.0211 41.3926 19.8648 41.0381 19.6224C39.9845 18.9025 34.2051 15.7874 33.3888 15.4994C32.4006 15.1509 31.6461 14.7422 28.2772 12.7311C26.8128 11.8569 26.1849 11.3557 26.2403 11.1056C26.2845 10.9065 26.4187 10.7616 26.5387 10.7833C26.659 10.8049 28.0881 11.6107 29.7147 12.5736C33.8878 15.0447 35.2949 15.73 35.59 15.435C35.723 15.3019 35.8768 14.572 35.9317 13.8129C36.0303 12.4506 36.0203 12.4226 35.1492 11.6389C33.705 10.3395 26.5955 5.12256 25.8366 4.80544C25.1083 4.50131 24.5549 4.43365 19.2312 3.9983C15.8821 3.72424 14.6528 3.3668 8.75269 0.949708C6.22602 -0.0854736 5.9203 -0.164069 5.80229 0.191775ZM43.0593 19.6969C40.9397 21.9367 39.2092 24.0039 39.0659 24.4671C38.9466 24.8523 39.0589 25.1168 39.5252 25.5492C39.8649 25.8638 40.3248 26.1212 40.5474 26.1212C40.77 26.1212 41.442 25.5316 42.0409 24.8113C42.6399 24.0909 43.6217 22.92 44.2227 22.2094C45.4757 20.7284 45.6595 19.7812 44.8093 19.1859C44.099 18.6881 43.981 18.7228 43.0593 19.6969ZM47.5157 22.6673C46.8432 23.356 46.7246 23.5939 46.9569 23.7859C47.5276 24.2572 52.4504 26.5768 52.8801 26.5768C53.3462 26.5768 54.3276 24.7306 54.1321 24.2215C54.0747 24.072 53.2721 23.6627 52.3486 23.3118C51.425 22.961 50.1891 22.4758 49.6021 22.2334C49.015 21.991 48.4974 21.7928 48.4523 21.7928C48.407 21.7928 47.9855 22.1864 47.5157 22.6673ZM55.9437 25.0407C55.2361 25.7483 54.9156 27.1694 55.3673 27.5968C55.54 27.7599 56.3989 28.2734 57.2759 28.7374C58.153 29.2015 60.0776 30.251 61.5527 31.0695C63.9773 32.4152 64.3304 32.5474 65.2337 32.4455C66.5759 32.2943 67.523 31.5723 67.9927 30.3426C68.5037 29.0042 68.2852 27.8578 67.3387 26.9142C66.6703 26.2479 66.3274 26.139 62.7434 25.4544C57.055 24.3677 56.6417 24.3427 55.9437 25.0407ZM45.5948 25.1589C45.3098 25.2052 44.9112 25.4959 44.7089 25.8046C44.3603 26.3363 44.3696 26.3978 44.8854 26.9675C46.7751 29.0564 48.4429 30.7501 48.7965 30.9392C49.5918 31.3648 51.3537 29.8214 50.9038 29.0933C50.7676 28.873 47.1057 25.7594 46.4548 25.3104C46.2669 25.1808 45.8798 25.1127 45.5948 25.1589ZM24.2627 29.3484L21.6182 32.1236L22.9306 32.951C24.8253 34.1455 26.1624 34.8738 26.2542 34.7617C26.5153 34.4435 29.4051 29.7093 29.5178 29.4154C29.6668 29.027 29.069 28.2946 27.7391 27.2359L26.9069 26.5734L24.2627 29.3484ZM41.3188 28.7308C41.0112 29.0384 40.7595 29.4591 40.7595 29.666C40.7595 30.3175 41.9166 33.8669 42.1289 33.8669C42.2405 33.8669 42.8495 33.7559 43.4821 33.6201C44.3861 33.4263 44.6323 33.2784 44.6323 32.9294C44.6323 32.4298 43.326 28.8958 42.9789 28.4563C42.6241 28.0071 41.9273 28.1221 41.3188 28.7308ZM51.0983 31.8692C50.737 32.3993 50.3741 32.9376 50.2916 33.0652C50.1515 33.2818 50.5616 33.8741 53.3462 37.4781C53.9414 38.2486 54.8957 39.4925 55.4673 40.2424C56.7955 41.9857 57.2577 42.2962 58.5228 42.295C60.9631 42.293 62.5899 39.9183 61.7194 37.6287C61.4941 37.036 60.1885 35.6894 59.8391 35.6894C59.7384 35.6894 58.5556 34.8947 57.2106 33.9238C52.2358 30.3323 52.1622 30.3075 51.0983 31.8692ZM14.1847 37.1134C13.2089 38.2723 12.0851 39.5793 11.6872 40.0178C10.0494 41.8225 7.04387 45.3814 7.04341 45.5163C7.04341 45.5958 8.14512 46.4121 9.49218 47.3299C10.839 48.2478 12.8125 49.598 13.8776 50.3304C14.9426 51.0629 16.9196 52.4225 18.2709 53.3519L20.7277 55.0416L20.976 54.4211C21.7023 52.6054 24.9864 44.1077 25.6521 42.3224C25.9503 41.5223 26.1653 40.8404 26.1298 40.807C26.0526 40.7338 17.1654 35.6479 16.4557 35.2706C15.9976 35.0271 15.819 35.172 14.1847 37.1134ZM43.0946 35.4994C42.2068 35.6982 42.1264 35.7757 42.1264 36.4325C42.1264 37.8167 43.0825 44.9222 43.3434 45.4769C44.0512 46.982 46.61 47.5846 48.178 46.6153C49.0603 46.0701 49.7718 44.4715 49.5736 43.4803C49.5023 43.1245 48.6234 41.1236 47.6203 39.0337L45.7964 35.2337L44.9296 35.2581C44.4528 35.2715 43.6272 35.38 43.0946 35.4994ZM60.4653 44.7105C55.0008 45.2883 51.2512 46.4617 48.7375 48.381C46.7975 49.8623 44.0113 54.3705 42.4665 58.5276L42.0644 59.6097H37.5216H32.9788L32.3129 60.2756C31.6604 60.9281 31.647 60.9905 31.647 63.3625C31.647 66.0229 31.939 66.9697 32.8339 67.2093C33.1207 67.2863 34.5429 67.3506 35.9943 67.3522C37.4457 67.354 38.6887 67.4109 38.7566 67.4788C38.8245 67.5467 38.4754 68.6457 37.9809 69.921C35.0366 77.5131 34.6086 79.4572 34.6086 85.2353C34.6086 89.7387 34.8154 90.859 35.8497 91.956C36.3629 92.5 36.3941 92.7112 36.4762 96.1737C36.5757 100.373 36.8577 101.236 38.5226 102.442C39.938 103.468 40.9064 103.636 44.7426 103.524C49.0389 103.398 50.2429 102.931 51.5075 100.897C51.987 100.126 52.0467 99.7078 52.1501 96.4015L52.2641 92.7565L73.3702 92.6984L94.4764 92.6403L94.5644 96.3434C94.6616 100.454 94.7931 100.917 96.2171 102.167C97.4382 103.239 98.9174 103.578 102.383 103.578C105.806 103.578 107.186 103.269 108.456 102.218C109.993 100.946 110.242 100.067 110.242 95.9165V92.2722L110.926 91.6174L111.609 90.9627V84.6079C111.609 77.3814 111.816 78.4751 109.077 71.1963C108.34 69.2369 107.737 67.5709 107.737 67.4943C107.737 67.418 108.608 67.3554 109.673 67.3554H111.609V63.3381V59.3209L108.096 59.4277L104.584 59.5345L103.96 58.0344C101.099 51.1533 99.2814 48.7624 95.5485 46.9675C93.4244 45.946 91.675 45.4345 88.9419 45.0356C87.3796 44.8078 62.2591 44.5208 60.4653 44.7105ZM57.3898 50.5093C54.6691 51.0499 52.5522 51.9347 51.7683 52.8587C50.8102 53.9884 49.5702 56.8596 47.9527 61.694C47.1289 64.156 46.4548 66.232 46.4548 66.3072C46.4548 66.3826 58.5517 66.4441 73.3367 66.4441C88.1218 66.4441 100.219 66.3862 100.219 66.3158C100.219 65.8907 96.6534 55.8314 96.0882 54.6621C95.0184 52.448 93.6861 51.5385 90.2701 50.6906C88.3207 50.2067 87.814 50.1894 73.9063 50.1352C60.6195 50.0833 59.3935 50.1111 57.3898 50.5093ZM44.6323 77.1912C43.4864 77.5167 42.4583 78.3738 41.7327 79.608C41.1819 80.5453 41.1017 80.918 41.1044 82.5288C41.1071 84.2044 41.1705 84.4664 41.7878 85.3596C43.1212 87.2888 45.7295 88.2791 47.7458 87.6216C50.1333 86.8434 51.3979 85.2198 51.6326 82.632C51.7307 81.5504 51.6499 81.1294 51.1352 80.0416C49.9666 77.5709 47.3428 76.4209 44.6323 77.1912ZM98.0545 77.4664C95.9593 78.4569 94.9662 80.0352 94.9963 82.3268C95.0191 84.0645 95.3733 84.9689 96.4673 86.0845C98.1813 87.8321 100.388 88.3258 102.328 87.3958C104.405 86.4005 105.454 84.917 105.63 82.7263C105.732 81.4645 105.665 81.0989 105.135 80.0163C103.784 77.2552 100.785 76.1754 98.0545 77.4664ZM59.2693 83.0168L56.4786 83.0886V84.4484V85.8082H73.1089H89.7393V84.3274V82.8466L75.8996 82.8958C68.2877 82.923 60.8043 82.9774 59.2693 83.0168ZM42.176 95.2937L42.2403 97.9447L43.9869 98.0456C46.6407 98.1987 46.6826 98.1536 46.6826 95.1406V92.6426H44.3972H42.112L42.176 95.2937ZM100.219 95.2624V97.8823H102.383H104.547V95.2624V92.6426H102.383H100.219V95.2624Z" fill="black"/>
</svg>
