<svg width="23" height="30" viewBox="0 0 23 30" fill="none" xmlns="http://www.w3.org/2000/svg">
<path fill-rule="evenodd" clip-rule="evenodd" d="M9.17936 0.0153496C6.36599 0.389415 4.71612 1.12069 2.99412 2.75688C1.60082 4.08085 0.740456 5.54483 0.247706 7.4303C-0.0901406 8.72299 -0.0813684 10.684 0.267725 11.8996C1.02297 14.5298 2.68281 17.8161 5.91365 23.078C6.45364 23.9573 7.82625 26.0144 9.13077 27.8993C10.4816 29.8511 10.6471 30.0002 11.4625 30C12.3357 29.9998 12.3886 29.9542 13.7377 28.0422C17.8799 22.1712 21.3276 16.0924 22.5169 12.5631C22.9386 11.3115 23.0369 10.6309 22.9889 9.29248C22.9448 8.06065 22.837 7.51623 22.4093 6.36396C21.2022 3.11208 18.386 0.803265 14.8209 0.142633C14.3523 0.0557776 13.6225 0.022921 11.8036 0.00677838C10.484 -0.00493572 9.30307 -0.00107871 9.17936 0.0153496ZM10.5289 5.07134C8.82809 5.3834 7.30321 6.57131 6.5721 8.15379C5.81169 9.79983 6.10537 11.7923 7.32712 13.2757C8.02839 14.1271 9.19735 14.837 10.2972 15.0795C11.3661 15.315 12.7322 15.1754 13.7652 14.7248C15.0989 14.1431 16.2106 12.8712 16.64 11.4355C16.8236 10.8221 16.8417 9.58369 16.677 8.91806C16.2374 7.14195 14.6789 5.63454 12.7783 5.14691C12.161 4.98863 11.1627 4.95505 10.5289 5.07134Z" fill="#C3A05B"/>
</svg>
